HIERARCHY
ROOT Hips
{
  OFFSET 0 0 0
  CHANNELS 6 Xposition Yposition Zposition Zrotation Yrotation Xrotation
  JOINT LeftThigh
  {
    OFFSET 8.409438 0 -5.917753
    CHANNELS 3 Zrotation Yrotation Xrotation
    JOINT LeftLeg
    {
      OFFSET 0 0 -42.358652
      CHANNELS 3 Zrotation Yrotation Xrotation
      JOINT LeftFoot
      {
        OFFSET 0 0 -39.357303
        CHANNELS 3 Zrotation Yrotation Xrotation
      }
    }
  }
  JOINT RightThigh
  {
    OFFSET -8.409438 0 -5.917753
    CHANNELS 3 Zrotation Yrotation Xrotation
    JOINT RightLeg
    {
      OFFSET 0 0 -42.358652
      CHANNELS 3 Zrotation Yrotation Xrotation
      JOINT RightFoot
      {
        OFFSET 0 0 -39.357303
        CHANNELS 3 Zrotation Yrotation Xrotation
      }
    }
  }
  JOINT SpineLow
  {
    OFFSET 0 0 4.719101
    CHANNELS 3 Zrotation Yrotation Xrotation
    JOINT SpineMid
    {
      OFFSET 0 0 12.899191
      CHANNELS 3 Zrotation Yrotation Xrotation
      JOINT Chest
      {
        OFFSET 0 0 12.899191
        CHANNELS 3 Zrotation Yrotation Xrotation
        JOINT LeftShoulder
        {
          OFFSET 7.550562 1.41573 9.438202
          CHANNELS 3 Zrotation Yrotation Xrotation
          JOINT LeftArm
          {
            OFFSET 9.155056 0 4.247191
            CHANNELS 3 Zrotation Yrotation Xrotation
            JOINT LeftForearm
            {
              OFFSET 0 0 25.771955
              CHANNELS 3 Zrotation Yrotation Xrotation
              JOINT LeftHand
              {
                OFFSET 0 0 25.197169
                CHANNELS 3 Zrotation Yrotation Xrotation
              }
            }
          }
        }
        JOINT RightShoulder
        {
          OFFSET -7.550562 1.41573 9.438202
          CHANNELS 3 Zrotation Yrotation Xrotation
          JOINT RightArm
          {
            OFFSET -9.155056 0 4.247191
            CHANNELS 3 Zrotation Yrotation Xrotation
            JOINT RightForearm
            {
              OFFSET 0 0 -25.771955
              CHANNELS 3 Zrotation Yrotation Xrotation
              JOINT RightHand
              {
                OFFSET 0 0 -25.197169
                CHANNELS 3 Zrotation Yrotation Xrotation
              }
            }
          }
        }
        JOINT Neck
        {
          OFFSET 0 0 15.101124
          CHANNELS 3 Zrotation Yrotation Xrotation
          JOINT Head
          {
            OFFSET 0 0 11.325843
            CHANNELS 3 Zrotation Yrotation Xrotation
            End Site
            {
              OFFSET 0 0 14.157303
            }
          }
        }
      }
    }
  }
}
MOTION
Frames: 17
Frame Time: 0.0
0.0  101.685394  0.0  -8.550463  -56.638665  -97.0459  34.645426  -35.54732  -28.96211  6.077693  15.254698  60.255299  -3.805745  1.122593  -0.417118  10.999563  -12.722661  23.854537  -38.399954  17.38723  -6.003676  40.470886  14.867588  2.856418  -4.57829  -2.133927  2.282652  -12.729333  -5.370874  6.631031  -12.729333  -5.370874  6.631032  20.57063  32.254398  17.055811  -159.701256  70.386559  -138.351685  -57.973789  -24.913794  100.248427  29.792586  -30.476902  6.986021  40.097609  5.357866  42.245932  114.319652  24.938294  49.574444  -19.871162  9.753288  -99.688487  88.16382  22.804136  73.440512  22.141589  1.791818  1.076793  16.601745  1.385065  0.743703  
0.0  101.685394  0.0  -7.965363  -56.58103  -97.431537  35.160944  -35.538227  -28.811766  6.828041  15.047837  59.81466  -4.415014  0.95846  -0.542254  11.916198  -13.48742  24.173071  -38.715989  17.587284  -6.735454  39.814601  14.846244  3.039402  -4.543979  -2.136611  2.188131  -12.628641  -5.399961  6.3712  -12.628641  -5.399961  6.3712  21.126568  32.604146  17.918125  -160.356205  70.44738  -138.413795  -58.003944  -25.310406  100.48505  29.994909  -30.832961  7.021481  40.139542  5.120951  42.944042  114.018317  25.322999  49.468846  -20.64336  10.257149  -99.957789  88.239634  21.954758  73.809746  22.146168  1.747593  1.198211  16.604992  1.356264  0.836501  
0.0  101.685394  0.0  -7.926562  -55.426982  -97.090215  35.269316  -35.44027  -29.193267  7.458536  14.662577  59.365116  -5.612551  0.82171  -0.80915  12.201033  -14.699882  23.689804  -39.668774  18.190029  -7.25258  39.477517  14.879376  3.211057  -4.6483  -2.194053  2.063693  -12.911074  -5.570098  6.051762  -12.911074  -5.570097  6.051761  21.30144  32.914767  18.443786  -161.560072  70.558613  -139.112365  -58.209974  -25.864429  100.797168  30.263062  -31.2998  6.892941  40.206957  4.9115  43.519445  113.676924  25.759301  49.274306  -21.414369  10.853778  -100.378682  88.237566  20.758096  74.137648  22.106234  1.751355  1.202488  16.575019  1.359158  0.839686  
0.0  101.685394  0.0  -7.690762  -54.293454  -96.887023  35.702888  -35.059122  -29.664142  7.787504  14.21005  58.958597  -7.002031  0.743287  -1.183991  12.792028  -15.776922  22.931713  -40.966713  18.942846  -7.553229  39.263184  14.8196  3.268011  -4.795825  -2.246236  1.944174  -13.311095  -5.72199  5.748721  -13.311096  -5.72199  5.748721  21.967758  33.322399  19.077872  -163.038413  70.698957  -140.007878  -58.544222  -26.403162  101.252776  30.489416  -31.733805  6.720441  40.450745  4.782888  43.944658  113.541108  26.083011  49.127562  -22.082971  11.50778  -100.804221  88.200445  19.402311  74.380893  22.242327  1.849672  1.160926  16.676857  1.43179  0.804495  
0.0  101.685394  0.0  -7.336195  -53.157235  -96.800542  36.495596  -34.573605  -30.221958  7.639414  14.158141  58.539461  -8.294901  0.709581  -1.71769  13.461818  -16.568779  22.117355  -42.367148  19.657727  -7.698436  39.218931  14.67748  3.270678  -4.856962  -2.267515  1.857096  -13.473644  -5.792086  5.520908  -13.473644  -5.792085  5.520908  22.050514  33.52546  19.409991  -164.703779  70.810224  -141.060359  -58.939963  -26.878484  101.772688  30.659053  -32.076504  6.606474  40.452497  4.674623  44.13969  113.269188  26.717356  48.808089  -22.773719  12.017649  -101.147328  88.187193  17.956941  74.336649  22.151449  1.949428  0.935886  16.609048  1.498356  0.632096  
0.0  101.685394  0.0  -6.372128  -52.610041  -97.39211  37.949679  -33.859396  -30.458597  6.993035  14.598821  58.004018  -9.17325  0.662957  -2.206874  14.57243  -16.748083  21.586584  -43.409788  20.25174  -7.613231  39.008369  14.566205  3.195889  -4.848495  -2.225562  1.800068  -13.441364  -5.690485  5.355761  -13.441365  -5.690485  5.355761  22.629895  33.735014  19.982228  -166.214226  70.939052  -141.805741  -59.303149  -27.223771  102.371499  30.834158  -32.252965  6.608045  39.520122  4.434729  43.471364  113.983354  26.481999  49.04845  -23.410157  12.359216  -101.514363  88.252849  16.231449  74.125764  22.060769  2.073577  0.613366  16.541709  1.579783  0.385634  
0.0  101.685394  0.0  -5.967141  -51.368621  -97.397534  38.958306  -33.213929  -31.036974  6.021521  15.602159  57.335209  -9.398701  0.601398  -2.527005  14.759252  -16.840974  20.984007  -44.256912  20.544983  -7.512192  38.914351  14.474707  3.230629  -4.879894  -2.222485  1.735352  -13.52176  -5.692749  5.181255  -13.521759  -5.692749  5.181255  22.589925  33.763611  20.298955  -167.288327  70.965945  -142.326829  -59.591444  -27.474904  102.996505  31.022679  -32.235498  6.695498  39.420279  4.253217  43.440413  113.743014  27.444827  48.695551  -24.050457  12.671925  -101.977456  88.250568  14.095674  73.839482  21.901066  2.215516  0.250514  16.422844  1.673171  0.108538  
0.0  101.685394  0.0  -5.499058  -49.978273  -97.442641  39.577431  -32.503751  -31.610161  4.826915  17.041872  56.470547  -9.211138  0.552593  -2.696245  14.487434  -16.667326  20.568876  -44.796341  20.654583  -7.437086  38.991078  14.59062  3.326317  -4.930523  -2.216265  1.66103  -13.653706  -5.687078  4.981481  -13.653706  -5.687079  4.981481  22.788556  33.814004  20.771481  -167.885624  71.077559  -142.28853  -59.735281  -27.681818  103.606295  31.340868  -32.058071  6.705738  38.161889  3.957852  42.67023  114.708737  27.568807  48.972477  -24.843352  13.068465  -102.593116  88.04456  11.453485  73.444483  21.671519  2.3638  -0.172186  16.251994  1.769383  -0.213366  
0.0  101.685394  0.0  -4.951432  -48.295011  -97.440243  39.950643  -31.640246  -32.06934  3.721928  18.439213  55.65793  -8.902771  0.562005  -2.835923  13.610261  -16.201171  20.276568  -45.183065  20.575405  -7.470281  38.93948  14.621359  3.403385  -4.978175  -2.198793  1.555103  -13.773894  -5.657964  4.692883  -13.773894  -5.657964  4.692883  22.799965  33.798949  21.245993  -168.013897  71.291255  -141.767  -59.732327  -27.892251  104.15938  31.748015  -31.863  6.506231  38.093009  3.745317  42.843954  114.592326  29.088747  48.5583  -25.817388  13.44998  -103.389  87.835657  8.385046  72.883191  21.418814  2.509831  -0.532838  16.063733  1.866412  -0.488352  
0.0  101.685394  0.0  -4.364993  -46.405667  -97.399069  39.75136  -30.757064  -32.471848  3.138514  19.534522  55.111613  -9.260618  0.398063  -3.187059  14.290581  -13.659705  19.738676  -46.143688  18.604687  -5.847168  38.79959  14.684756  3.364017  -5.095874  -2.188289  1.416239  -14.083939  -5.650215  4.321798  -14.083939  -5.650215  4.321798  23.357917  33.869934  21.973494  -167.93683  71.67018  -140.961855  -59.651862  -28.096302  104.710521  32.253039  -31.750985  6.041386  38.373891  3.509707  43.16205  114.596358  30.726199  48.142463  -26.863513  13.601291  -104.30238  88.016683  5.1302  72.126364  21.245292  2.657371  -0.846988  15.934819  1.966396  -0.728675  
0.0  101.685394  0.0  -3.755783  -44.368232  -97.310467  39.19864  -29.94131  -32.802507  2.876281  20.406571  54.639146  -9.39448  0.496421  -3.317273  12.418398  -12.687034  19.660732  -46.257293  18.353389  -5.964351  38.966555  14.771181  3.362683  -5.159739  -2.154551  1.273316  -14.244377  -5.584968  3.930105  -14.244377  -5.584968  3.930105  23.462889  33.823409  22.499352  -167.794688  72.189184  -140.075228  -59.538204  -28.364809  105.312664  32.917307  -31.693122  5.21698  38.451476  3.197274  43.362565  114.573423  32.608037  47.594423  -27.943465  13.429675  -105.255186  88.691777  1.790428  71.095995  20.907639  2.726081  -1.159213  15.682995  2.007684  -0.963972  
0.0  101.685394  0.0  -2.88471  -43.122717  -97.831289  38.671304  -29.370266  -32.727703  3.463224  20.850549  54.687839  -9.739767  0.425665  -3.424485  11.166912  -11.601452  20.022992  -46.272322  18.101233  -6.006816  38.705371  14.792174  3.210121  -5.076728  -2.062053  1.195604  -14.003491  -5.355404  3.691348  -14.003491  -5.355404  3.691349  23.584123  33.713671  23.050849  -167.945095  72.900898  -139.316066  -59.43941  -28.79384  105.977792  33.738087  -31.653872  4.057598  37.144987  2.442807  42.712716  115.843079  33.493714  47.887499  -29.115011  12.940233  -106.194692  89.783123  -1.635366  69.739321  20.345683  2.68632  -1.526396  15.263273  1.966506  -1.235759  
0.0  101.685394  0.0  -2.332499  -40.962177  -97.732685  37.526418  -28.709155  -32.92871  3.948847  21.42196  54.495923  -9.799638  0.395017  -3.356577  9.195317  -10.541469  19.898879  -46.351827  17.942854  -6.0636  38.89952  14.892241  3.214463  -5.101817  -2.001466  1.069569  -14.058004  -5.216085  3.336687  -14.058004  -5.216085  3.336687  23.554144  33.568233  23.335225  -168.352059  73.822198  -138.771378  -59.339617  -29.260469  106.672146  34.731728  -31.48111  2.700457  37.113566  1.941736  42.6131  115.97556  35.627156  47.344056  -30.423984  12.375887  -107.097628  91.01028  -5.112102  68.051715  19.811299  2.616994  -1.863168  14.864019  1.904721  -1.483922  
0.0  101.685394  0.0  -1.765756  -38.754405  -97.6596  36.039597  -28.082925  -33.149682  4.724307  21.943171  54.475673  -10.144433  0.147868  -3.297622  7.603768  -9.675562  19.684805  -46.775368  17.87669  -6.089947  38.982032  15.024831  3.223487  -5.119943  -1.930396  0.965374  -14.09493  -5.044171  3.0387  -14.09493  -5.044171  3.0387  23.681557  33.367372  23.59904  -169.041227  74.935153  -138.246367  -59.268285  -29.736656  107.411509  35.823786  -31.172438  1.255748  37.025787  1.394308  42.284974  116.164671  37.875082  46.899314  -31.880526  11.859543  -107.995946  92.286726  -8.691412  66.0119  19.235702  2.524894  -2.270766  14.434047  1.824347  -1.784457  
0.0  101.685394  0.0  -1.202244  -36.506637  -97.529712  34.655472  -27.464915  -33.272793  5.41144  22.334801  54.358926  -10.489463  0.167277  -3.241309  6.598547  -9.097417  19.345973  -47.542077  17.987234  -6.16975  38.875022  15.166447  3.244889  -5.135776  -1.846922  0.864322  -14.12564  -4.838094  2.746408  -14.12564  -4.838093  2.746408  23.552402  33.121434  23.496745  -170.270472  76.163099  -138.467537  -59.272366  -30.170746  108.183515  36.938328  -30.815714  -0.108798  37.097661  0.811639  41.87186  116.23194  40.39269  46.446352  -33.509748  11.43134  -108.792281  93.630322  -12.486116  63.567896  18.64146  2.378097  -2.728219  13.990022  1.702245  -2.120824  
0.0  101.685394  0.0  -0.582162  -34.203298  -97.428534  32.924778  -26.738332  -33.317247  6.252793  22.428159  54.347381  -10.592845  0.339606  -3.125213  6.076897  -8.744946  19.031851  -48.58933  18.135724  -6.298377  38.472577  15.391038  3.252097  -5.14223  -1.734923  0.755141  -14.12925  -4.556698  2.425157  -14.12925  -4.556698  2.425157  23.535738  32.751148  23.443093  -171.723465  77.59694  -138.797065  -59.261207  -30.526467  108.903637  38.057835  -30.427853  -1.357081  37.163169  0.113002  41.331863  116.225531  43.037895  46.005137  -35.241577  11.009817  -109.469664  95.204449  -16.322812  60.679819  17.990261  2.15298  -3.196055  13.502793  1.522233  -2.462725  
0.0  101.685394  0.0  0.067362  -31.757181  -97.309661  31.09357  -25.825088  -33.150739  6.810994  22.518552  54.090794  -10.727328  0.442936  -3.140474  5.793916  -8.508686  18.756238  -49.809338  18.282181  -6.498508  37.854434  15.671914  3.252091  -5.146846  -1.592947  0.63188  -14.126594  -4.196887  2.059071  -14.126594  -4.196887  2.059071  23.347911  32.267164  23.336779  -173.112242  79.137335  -139.146022  -59.205298  -30.899644  109.56093  39.139098  -30.089681  -2.556126  37.120456  -0.752616  40.578096  116.171193  45.702459  45.582216  -36.979121  10.510711  -110.019317  97.142072  -19.96167  57.333131  17.279024  1.860858  -3.656882  12.969805  1.293495  -2.797725  
